<svg width="24" height="25" viewBox="0 0 24 25" fill="none" xmlns="http://www.w3.org/2000/svg">
<path fill-rule="evenodd" clip-rule="evenodd" d="M14.6823 3.28681C12.7265 3.23773 11.2735 3.23774 9.3177 3.28681L9.24285 3.28869C7.73349 3.32652 6.49161 3.35765 5.49064 3.53175C4.42828 3.71654 3.53876 4.07641 2.78536 4.83174C2.0359 5.58311 1.67705 6.4586 1.49526 7.50416C1.32465 8.48538 1.29883 9.69623 1.26758 11.1617L1.26597 11.2371C1.24467 12.2351 1.24468 12.765 1.26599 13.7629L1.2676 13.8383C1.29884 15.3038 1.32466 16.5146 1.49527 17.4959C1.67707 18.5414 2.03592 19.4169 2.78537 20.1683C3.53878 20.9236 4.42829 21.2835 5.49066 21.4683C6.49162 21.6424 7.7335 21.6735 9.24286 21.7113L9.31772 21.7132C11.2735 21.7623 12.7265 21.7623 14.6823 21.7132L14.7571 21.7113C16.2665 21.6735 17.5084 21.6423 18.5094 21.4682C19.5717 21.2835 20.4612 20.9236 21.2146 20.1683C21.9641 19.4169 22.323 18.5414 22.5047 17.4958C22.6754 16.5146 22.7012 15.3038 22.7324 13.8383L22.734 13.7629C22.7553 12.7649 22.7553 12.2351 22.734 11.2371L22.7324 11.1618C22.7012 9.69627 22.6753 8.48538 22.5047 7.50416C22.3229 6.4586 21.9641 5.58311 21.2146 4.83174C20.7913 4.40728 20.3249 4.1077 19.809 3.89389C19.7305 3.85104 19.6464 3.81873 19.5587 3.79811C19.2289 3.68184 18.8796 3.59616 18.5093 3.53176C17.5084 3.35765 16.2665 3.32652 14.7571 3.28868L14.6823 3.28681ZM20.6798 9.3503C20.6604 8.94479 20.6507 8.74204 20.5039 8.66109C20.3571 8.58014 20.1765 8.68242 19.8155 8.88697L15.5798 11.287C14.2801 12.0234 13.181 12.5 11.9998 12.5C10.8186 12.5 9.71946 12.0234 8.41985 11.287L4.18445 8.88719C3.82343 8.68263 3.64292 8.58035 3.49608 8.6613C3.34924 8.74225 3.33957 8.94501 3.32023 9.35053C3.29416 9.89704 3.28003 10.5306 3.26403 11.2797C3.24333 12.2492 3.24334 12.7508 3.26405 13.7203C3.29736 15.2803 3.32261 16.3393 3.46432 17.1543C3.59776 17.9218 3.82038 18.3777 4.20122 18.7595C4.5781 19.1374 5.04027 19.3638 5.83355 19.5018C6.67174 19.6476 7.76497 19.6776 9.36791 19.7178C11.2902 19.766 12.7098 19.766 14.6321 19.7178C16.235 19.6776 17.3283 19.6476 18.1665 19.5018C18.9597 19.3638 19.4219 19.1374 19.7988 18.7595C20.1796 18.3777 20.4023 17.9218 20.5357 17.1543C20.6774 16.3393 20.7027 15.2803 20.736 13.7203C20.7567 12.7508 20.7567 12.2492 20.736 11.2797C20.72 10.5305 20.7058 9.89687 20.6798 9.3503Z" fill="#141B34"/>
</svg>
