<svg width="299" height="141" viewBox="0 0 299 141" fill="none" xmlns="http://www.w3.org/2000/svg">
<g opacity="0.9" clip-path="url(#clip0_1_42)">
<g clip-path="url(#clip1_1_42)">
<g opacity="0.761177">
<mask id="mask0_1_42" style="mask-type:luminance" maskUnits="userSpaceOnUse" x="0" y="-7" width="299" height="154">
<g opacity="0.761177">
<path fill-rule="evenodd" clip-rule="evenodd" d="M299 146.809H0V-6.5H299V146.809Z" fill="white"/>
</g>
</mask>
<g mask="url(#mask0_1_42)">
<path opacity="0.739578" fill-rule="evenodd" clip-rule="evenodd" d="M11.127 104.13C11.1911 104.055 11.2718 103.977 11.3945 103.897C11.644 103.861 11.8714 103.799 12.0913 103.729C12.0031 103.848 11.9141 103.96 11.8349 104.113C12.2064 103.828 12.0265 104.302 11.9948 104.683C11.7632 104.714 11.5309 104.775 11.2994 104.849C11.2979 104.841 11.2972 104.835 11.2959 104.828C11.349 104.818 11.4014 104.8 11.4551 104.795C11.3979 104.798 11.3414 104.787 11.2862 104.77C11.2462 104.539 11.2731 104.392 11.6089 104.544C11.5172 103.659 11.3041 104.436 11.0291 104.571C11.0002 104.515 10.985 104.454 10.9953 104.382C11.0381 104.299 11.0795 104.219 11.127 104.13ZM15.0493 102.727C15.0217 102.966 14.992 103.203 14.9624 103.455C14.8656 103.315 14.8097 103.145 14.8151 102.883C14.7557 102.859 14.6931 102.865 14.6315 102.848C14.7733 102.805 14.9107 102.766 15.0493 102.727ZM17.2119 71.4568C17.2317 71.7592 17.2603 72.0874 17.2976 72.4694C17.0712 72.7842 16.925 72.1214 16.7788 71.3517C16.9513 71.3689 17.0954 71.4037 17.2119 71.4568ZM17.5246 13.713C17.3223 13.7306 17.1343 13.7517 16.9218 13.7684C16.8342 13.7418 16.7422 13.7406 16.6545 13.7871C16.3106 13.8115 15.9614 13.8369 15.5948 13.8613C15.3275 12.3962 15.3696 11.1027 15.4514 9.72048C15.475 9.6076 15.4835 9.39374 15.4835 9.15127C15.4852 9.12366 15.4869 9.09708 15.4877 9.07049C15.6336 9.14023 15.7802 9.20894 15.9185 9.29088C15.9632 10.3474 15.9842 11.4504 16.0484 12.384L16.5888 12.0672C16.4109 11.0196 16.4615 10.3507 16.5137 9.6862C16.77 9.87114 17.0264 10.0661 17.286 10.2609C17.2144 11.58 17.0828 12.4769 16.7843 12.0828C17.2438 13.1304 17.2767 12.8878 17.5879 12.8048C17.5549 13.1747 17.5356 13.4582 17.5246 13.713ZM13.4951 14.7207C13.5611 13.9757 13.781 14.0894 13.9864 14.6871C13.8238 14.6967 13.6589 14.7098 13.4951 14.7207ZM13.6199 9.80736C13.6122 9.74271 13.6089 9.66731 13.6023 9.59903C13.6935 9.57622 13.7826 9.55341 13.8793 9.53074L13.7573 9.78107L13.6199 9.80736ZM12.1422 9.82596C12.4367 9.71932 12.7654 9.61516 13.1315 9.51215C13.1359 9.56852 13.1348 9.60804 13.1403 9.66789L12.1422 9.82596ZM29.5095 10.4223C29.5019 10.5291 29.4931 10.6141 29.4865 10.728C29.0489 12.0784 28.8973 11.3408 28.7522 10.3772L28.8291 10.2681C29.0665 10.3225 29.2887 10.3732 29.5095 10.4223ZM173.263 -1.70925C174.265 -0.439127 176.159 -1.87064 176.454 -0.202563C177.469 0.101427 178.357 0.176597 179.18 0.12906C178.919 0.302615 178.664 0.48942 178.413 0.686192C176.265 0.139012 173.944 -0.408182 171.486 -0.922193C172.108 -1.05927 172.707 -1.30135 173.263 -1.70925ZM235.124 -3.57739C235.157 -3.33505 235.184 -3.11325 235.206 -2.90688C234.869 -3.00955 234.528 -3.11223 234.181 -3.21286C234.446 -4.37625 234.842 -4.29514 235.124 -3.57739ZM289.106 13.2698C288.396 13.5968 288.167 13.3967 288.007 13.1752C288.369 13.15 288.732 13.1213 289.093 13.0829L289.106 13.2698ZM261.667 18.8418C262.119 19.3481 262.893 19.7837 262.692 20.4278C261.084 20.9881 259.681 21.0909 258.327 21.0334C258.332 20.9426 258.339 20.8557 258.342 20.7632C258.712 20.0453 259.066 19.3557 259.411 18.685C259.699 19.0384 259.917 18.8986 260.146 18.6521C260.657 18.6888 261.175 18.7266 261.667 18.8418ZM255.623 80.3141C255.627 80.4268 255.64 80.521 255.666 80.5743L255.671 80.3388L255.956 80.4813C255.964 80.703 255.975 80.9218 255.982 81.192C256.032 81.3226 256.08 81.4158 256.128 81.482C255.851 82.5759 255.491 82.668 255.265 82.9837L255.284 82.4204C254.471 85.7641 254.833 83.1272 253.929 84.5269L254.35 81.1593C254.364 81.4117 254.387 81.6879 254.43 82.0037C254.425 80.9743 254.445 80.2615 254.478 79.736L255.623 80.3141ZM253.118 82.8103C253.137 82.3139 253.104 80.6742 253.243 79.8131L251.984 84.8857C251.657 87.214 252.041 87.1566 252.086 88.4701C252.07 88.7408 252.043 88.9436 252.013 89.1056C251.93 89.0722 251.815 89.0993 251.652 89.3177C251.609 89.2247 251.569 89.1014 251.533 88.9488L251.783 85.9684C251.707 85.6496 251.651 85.59 251.605 85.6737C251.628 85.3423 251.631 84.9913 251.565 84.5806L251.244 87.9258C251.237 87.3593 251.166 85.8263 251.248 85.0006L250.941 86.8357C251.055 84.6265 251.661 82.5365 251.883 81.2971C251.353 80.7537 251.133 83.015 250.67 83.686C250.667 83.2221 250.656 82.7643 250.633 82.3202C250.992 82.1801 251.231 80.5938 251.453 78.6323C251.694 78.5977 251.943 78.579 252.184 78.5381L253.93 79.2938C253.871 79.718 253.829 80.1663 253.858 80.7495C253.491 79.3878 253.388 83.2084 253.118 82.8103ZM251.386 88.2144L251.225 89.1309C251.146 89.2934 251.053 89.3293 250.951 89.3148C251.099 88.1031 251.202 86.8945 251.245 85.7246C251.31 86.1774 251.365 86.6971 251.412 87.179C251.413 87.6009 251.405 87.9387 251.386 88.2144ZM246.917 104.811C246.69 104.838 246.465 104.868 246.236 104.888C246.268 104.426 246.29 103.965 246.308 103.508C246.431 103.621 246.522 103.362 246.594 102.862L247.073 103.227L247.514 103.069C247.514 103.069 247.879 101.804 248.366 99.816C248.4 100.517 248.466 101.14 248.601 101.579C248.605 100.728 248.659 99.9674 248.722 99.2429L248.499 99.2665C248.614 98.7783 248.737 98.2577 248.86 97.7017C248.845 97.8649 248.836 98.0258 248.819 98.1922C248.791 98.2995 248.776 98.5056 248.768 98.7406C248.752 98.9113 248.738 99.0723 248.722 99.2429L248.767 99.2375C248.774 99.6367 248.794 100.115 248.843 100.775C249.08 99.904 249.338 101.833 249.533 102.511C248.677 103.133 247.809 104.098 246.917 104.811ZM245.167 117.577C245.5 117.325 245.842 117.264 246.203 117.499C245.839 117.492 245.494 117.518 245.167 117.577ZM243.392 121.656C243.591 121.516 243.94 121.501 244.118 121.347C243.979 120.603 242.988 121.802 241.838 121.34C241.955 121.277 242.069 121.202 242.181 121.117L243.742 120.392L243.211 120.055C243.457 119.744 243.697 119.416 243.931 119.1L244.345 118.963C244.345 118.963 244.353 118.94 244.362 118.904L246.235 118.063C245.23 120.23 244.496 121.668 243.392 121.656ZM242.937 122.335C242.943 122.223 242.982 122.144 243.039 122.084L244.037 122.244C243.775 122.403 243.499 122.514 242.937 122.335ZM241.222 127.645C240.982 127.616 240.743 127.588 240.501 127.561C240.418 126.54 239.626 126.407 240.311 124.847C239.728 124.707 239.191 124.943 239.138 126.451C239.06 126.446 238.985 126.43 238.906 126.43C238.73 126.044 238.704 125.245 238.663 124.41C238.787 124.341 238.928 124.292 239.05 124.221C238.923 124.233 238.786 124.236 238.655 124.243C238.634 123.819 238.603 123.397 238.542 123.029C239.292 122.931 240.179 122.845 241.08 122.713C240.877 123.182 240.654 123.556 240.971 123.631L241.152 122.704C242.408 122.518 243.668 122.223 244.639 121.656L245.136 121.733C244.032 124.33 241.327 123.219 241.222 127.645ZM246.314 137.2L246.368 136.083C246.665 136.071 246.96 136.049 247.255 136.029C247.183 136.737 247.114 137.365 246.314 137.2ZM247.668 140.897C247.859 141.173 248.099 141.311 248.357 141.366C248.328 141.522 248.36 141.693 248.434 141.867C248.07 141.894 247.706 141.917 247.334 141.94C247.379 141.606 247.446 141.254 247.668 140.897ZM245.135 142.928C245.899 142.248 246.414 142.723 247.202 142.305L247.334 142.742C246.655 142.783 245.931 142.841 245.135 142.928ZM30.3803 11.5676C30.4002 11.9077 30.4331 12.1617 30.4683 12.3917C30.3089 12.4479 30.1485 12.5066 29.9902 12.5618C30.1176 12.2467 30.2507 11.9376 30.3803 11.5676ZM30.9236 11.3148C30.9236 11.062 30.9083 10.7507 30.8874 10.4189C31.2193 10.5842 31.5085 10.7735 31.7702 10.9866C31.4887 11.0969 31.215 11.2046 30.9236 11.3148ZM201.915 1.17375C201.709 1.22166 201.594 1.31268 201.522 1.42407C201.522 1.38695 201.512 1.3534 201.517 1.31627C201.65 1.24681 201.775 1.20968 201.907 1.1462C201.908 1.15579 201.914 1.16297 201.915 1.17375ZM204.003 0.686351L203.513 2.81184C204.137 1.41554 204.81 1.84891 205.562 2.2616C205.337 2.55224 205.051 2.77357 204.733 2.94527C204.565 2.99077 204.394 3.03318 204.226 3.08179C203.953 3.07767 203.68 3.06938 203.414 3.02905C203.036 2.66393 202.502 2.35365 202.265 1.93786C202.431 1.71756 202.533 1.46001 202.615 1.2035C203.087 0.986303 203.549 0.813576 204.003 0.686351ZM218.06 138.424C218.554 139.018 219.206 139.608 219.853 140.368L219.737 140.769L219.76 140.82C219.022 140.775 218.404 140.611 218.16 139.749C217.986 139.704 217.822 139.677 217.655 139.639C217.793 139.18 217.92 138.751 218.06 138.424ZM211.059 139.621C211.263 138.698 211.643 138.431 212.101 138.424C212.193 138.862 212.167 139.196 212.076 139.482C211.732 139.523 211.393 139.569 211.059 139.621ZM207.76 139.621C207.867 139.071 208.125 138.65 208.734 138.539C208.764 138.564 208.794 138.593 208.824 138.624L208.854 139.379L209.076 138.972C209.12 139.053 209.162 139.136 209.197 139.228C209.249 139.016 209.256 138.806 209.283 138.595L209.377 138.424L209.959 139.303C209.223 139.402 208.496 139.514 207.76 139.621ZM179.135 139.059C179.045 138.936 178.968 138.84 178.891 138.74C179.457 138.676 179.91 138.623 180.138 138.649C180.286 138.862 180.305 139.034 180.251 139.187L179.66 139.191C179.676 139.268 179.676 139.331 179.685 139.403C179.167 139.405 178.604 139.358 178.08 139.257C178.397 138.87 178.743 138.742 179.135 139.059ZM185.523 2.26856L185.775 2.41227C185.473 2.64224 185.041 2.67458 184.597 2.69733C184.271 2.58115 183.925 2.46019 183.576 2.33921C184.241 2.40987 184.899 2.41106 185.523 2.26856ZM227.793 123.619C227.872 123.503 227.95 123.392 228.027 123.275L228.401 123.63C228.198 123.625 227.995 123.62 227.793 123.619ZM187.711 138.554L187.365 139.492C187.261 139.219 187.191 138.947 187.139 138.677C187.331 138.637 187.519 138.592 187.711 138.554ZM201.165 126.396L201.891 125.391C202.858 125.489 204.2 125.182 205.497 125.355L205.562 125.509C204.201 125.871 202.787 126.208 201.165 126.396ZM207.76 119.261L208.187 118.706C208.209 118.71 208.228 118.715 208.251 118.719C208.242 118.681 208.26 118.648 208.258 118.613L208.68 118.063C208.898 118.101 208.876 118.599 208.829 119.143C208.491 119.185 208.133 119.224 207.76 119.261ZM201.165 124.319C201.528 124.309 201.895 124.306 202.265 124.382L202.065 124.784C202.091 124.794 202.127 124.788 202.155 124.795C201.733 125.223 201.42 124.88 201.165 124.319ZM199.071 124.842C199.065 124.707 199.046 124.571 199.016 124.433C199.344 124.504 199.677 124.546 200.016 124.56C199.846 124.801 199.555 124.926 199.071 124.842ZM197.864 124.373C197.589 124.658 197.219 124.898 196.773 124.977C196.816 124.909 196.857 124.844 196.901 124.776C197.197 124.629 197.483 124.477 197.764 124.324C197.798 124.339 197.83 124.356 197.864 124.373ZM217.585 123.875C217.92 123.678 217.888 123.364 217.818 123.011C218.083 123.133 218.379 123.155 218.7 123.135C218.709 123.421 218.734 123.713 218.753 123.989C218.02 124.013 217.306 124.096 216.735 124.02C216.772 123.688 216.74 123.403 216.554 123.242C216.917 123.118 217.263 122.99 217.564 122.854C217.566 122.856 217.569 122.856 217.571 122.857C217.31 123.485 217.065 122.465 217.585 123.875ZM190.172 138.86C189.607 140.124 188.353 139.653 187.973 138.625C188.667 138.547 189.384 138.487 190.094 138.424C190.141 138.553 190.176 138.691 190.172 138.86ZM229.755 122.892C230.724 123.892 231.973 123.164 233.044 124.013C232.013 123.905 230.953 123.793 229.89 123.714C229.88 123.48 229.706 123.17 229.755 122.892ZM201.134 1.50817C200.96 1.77153 201.063 2.16344 200.632 2.35629C200.855 2.29719 201.012 2.19558 201.141 2.07635C201.145 2.19455 201.144 2.31274 201.165 2.43198C200.132 2.6269 199.101 2.7959 198.069 3.01259L198.673 3.23241C198.051 3.23034 197.432 3.24381 196.811 3.28426L196.457 2.96907L195.778 3.36617C194.603 3.48333 193.434 3.66166 192.271 3.89702C191.183 3.99552 190.097 4.122 189.015 4.27961C187.774 3.90324 186.685 3.58286 185.775 3.32883C188.246 3.36512 190.902 3.88872 192.77 2.80939C191.64 2.32 190.128 2.52944 188.755 2.23187C188.509 1.98408 188.195 1.75183 187.934 1.50921C187.984 1.46566 188.038 1.43248 188.088 1.38686C189.123 2.46412 190.759 0.918223 191.167 2.44961C195.175 3.2407 196.89 0.545993 200.791 0.692192C201.092 0.857044 201.134 1.15669 201.134 1.50817ZM181.502 139.547C181.509 139.476 181.523 139.398 181.527 139.326L181.379 139.328C181.965 138.957 182.515 138.597 183.479 138.424C183.572 138.846 183.598 139.242 183.562 139.621C182.888 139.585 182.2 139.562 181.502 139.547ZM236.341 125.494L236.305 126.305C235.98 126.398 235.662 126.501 235.348 126.607C233.176 126.631 231.116 126.885 229.433 127.645C229.228 127.542 229.007 127.474 228.781 127.419C229.617 127.431 230.372 127.358 230.646 126.819C229.692 127.023 228.642 127.062 227.547 127.022L227.679 126.695C230.424 126.371 233.059 125.92 235.46 125.25C235.764 125.272 236.064 125.336 236.341 125.494ZM30.5628 10.4604C30.531 10.7761 30.4969 11.0834 30.454 11.3298C30.2792 11.3763 30.1045 11.4202 29.9286 11.4658C29.9429 11.0453 29.9242 10.6454 29.8956 10.2681C30.1309 10.3297 30.3539 10.3946 30.5628 10.4604ZM27.3097 11.4049C27.2725 11.6533 27.2564 11.863 27.238 12.0764C26.6497 12.2946 25.9971 12.4935 25.2829 12.6635L25.4089 10.2681C26.1208 10.309 26.8561 10.4863 27.4814 10.707L27.3097 11.4049ZM24.5338 13.8613C24.5899 13.1047 24.624 12.3193 24.635 11.5682C24.7328 11.5307 24.8285 11.49 24.934 11.4659C24.9197 12.3293 24.9219 13.087 24.9262 13.7755C24.7943 13.8041 24.6669 13.8339 24.5338 13.8613ZM23.315 12.3548C23.4359 11.2723 23.3898 10.3838 23.3205 9.34159C23.4568 9.2656 23.6052 9.17422 23.7658 9.07034C23.7745 9.45534 23.8217 9.82247 23.9196 10.1629L23.9536 11.0367C23.791 12.0344 23.5964 13.242 23.315 12.3548ZM22.1501 9.35466C22.3369 9.3028 22.5557 9.21185 22.8162 9.07034C22.8349 10.5224 22.902 11.8602 22.9196 12.6635C22.6458 11.7563 22.392 10.5567 22.1501 9.35466ZM22.9966 13.638C22.4572 13.7206 21.9387 13.7944 21.4515 13.8613L20.8859 11.1018L21.2727 11.0261L21.0604 10.2682C21.5591 10.2856 21.8529 10.4331 22.3307 10.3623C22.6015 10.968 22.8618 11.857 23.0844 13.1567C23.0582 13.3324 23.0291 13.4906 22.9966 13.638ZM19.9846 13.3954C20.2023 13.2278 20.4166 12.9583 20.6892 13.2793C20.4408 13.32 20.2099 13.3584 19.9846 13.3954ZM19.0939 10.7298C19.1939 10.6889 19.2907 10.6483 19.3809 10.616C19.2928 10.8124 19.2082 10.9897 19.1456 11.1178C19.1347 11.0016 19.1137 10.8627 19.0939 10.7298ZM4.22384 16.2566L3.29768 15.8629C3.53312 14.5603 4.08438 14.9632 4.39692 16.1949C4.34033 16.2181 4.27963 16.2334 4.22384 16.2566ZM256.599 81.1194C256.66 81.0989 256.717 81.0366 256.775 80.9336C256.724 81.3572 256.664 82.0925 256.581 83.329L256.599 81.1194ZM261.277 45.0923C261.221 45.4396 261.163 45.7797 261.105 46.1091C261.029 46.0469 260.95 45.9798 260.873 45.9163C261.007 45.6804 261.141 45.4109 261.277 45.0923ZM262.467 50.0547C262.456 50.3146 262.445 50.5686 262.43 50.8128C262.302 50.6188 262.126 50.3829 261.883 50.0954C262.002 49.9348 262.209 49.9373 262.467 50.0547ZM268.43 64.42C268.438 64.3919 268.446 64.3867 268.452 64.364C268.45 64.4261 268.451 64.4759 268.447 64.5414C268.505 64.4418 268.559 64.3116 268.611 64.1657C268.781 64.2443 268.951 65.0297 269.111 64.9048C269.119 65.1503 269.108 65.6571 269.103 66.0598C269.016 66.2344 268.926 66.3952 268.838 66.5612C268.832 66.4292 268.826 66.3008 268.818 66.1401C268.663 65.9279 268.385 66.4843 268.43 64.42ZM257.996 86.2707C257.85 86.4815 257.705 86.5964 257.56 86.6587C257.697 85.8431 257.861 85.8466 257.996 86.2707ZM259.772 86.9221C260.039 87.2139 260.142 87.6151 260.191 88.1199C260.048 87.9958 259.898 87.8283 259.76 87.7497C259.761 87.5066 259.765 87.2428 259.772 86.9221ZM-15.8187 99.1027C-15.8269 99.4762 -16.1021 99.4128 -16.2154 99.6081C-16.1495 100.3 -15.6816 99.1339 -15.1436 99.6383L-16.0453 100.474L-15.5383 101.116L-17.5884 102.954C-15.8949 103.428 -15.1178 100.841 -13.7367 101.763C-13.9552 101.979 -13.7408 102.163 -13.6872 102.335C-13.2481 101.994 -12.7225 101.995 -12.4525 101.541L-11.7536 101.557C-11.7618 101.93 -12.0309 102.841 -12.7451 102.822C-12.1061 102.839 -11.5052 102.727 -10.9218 102.565C-10.7467 104.002 -10.5755 105.317 -10.4199 106.426C-10.6281 106.358 -10.7838 106.258 -10.8022 106.05C-11.0836 106.126 -11.2105 106.095 -11.2465 106.612C-10.993 106.675 -10.4323 106.518 -10.7498 107.112C-11.263 107.355 -11.5073 106.918 -11.9144 106.964C-11.8866 106.821 -11.5949 106.371 -11.7526 106.481C-12.7513 106.826 -14.6045 106.805 -15.5506 108.21C-15.192 108.077 -15.1549 107.561 -14.6766 107.832C-14.6849 108.204 -14.9384 108.142 -15.0425 108.337C-14.9838 109.029 -14.5509 107.862 -14.0531 108.368L-14.8859 109.203L-14.4179 109.845L-16.3123 111.683C-14.7478 112.158 -14.0304 109.569 -12.7534 110.492C-12.9555 110.708 -12.7575 110.892 -12.708 111.064C-12.305 110.725 -11.8247 110.722 -11.5742 110.277C-11.4485 110.299 -11.2836 110.297 -11.0991 110.281L-10.9218 110.286C-10.9291 110.658 -11.1775 111.571 -11.8381 111.551C-9.52839 111.615 -7.75867 109.743 -5.43551 110.412C-5.33761 110.587 -5.74576 110.633 -5.57054 110.752C-5.25926 110.53 -4.74598 110.286 -4.76662 110.057C-4.79546 110.2 -4.85318 110.484 -5.05623 110.509C-4.67282 110.391 -4.35022 110.433 -4.05852 110.518C-4.21105 110.542 -4.344 110.598 -4.43781 110.713L-4.38833 110.57L-5.07684 110.837C-4.66971 110.817 -3.97918 110.841 -3.43292 110.747C-3.09072 110.882 -2.78047 110.962 -2.44447 110.724C-2.40221 111.183 -3.03609 111.023 -2.93818 111.195C-1.75287 111.572 -1.13653 110.159 0.0580387 110.165C-0.33672 110.81 0.32188 110.83 0.644482 111.21C1.62364 110.635 3.70769 110.496 5.19188 110.048C4.80126 111.67 6.84304 110.095 6.96363 111.472C7.29449 111.483 7.80774 111.239 7.84382 110.724C7.66035 110.978 7.21305 110.561 7.27177 110.278C7.75519 110.178 8.49213 110.141 8.55707 109.484L9.1538 110.159C9.19092 109.647 9.37952 109.031 9.70523 109.031H9.71245C10.1278 109.77 10.0464 109.375 10.0886 109.025C10.2515 109.028 10.4154 109.033 10.5803 109.043C10.3876 109.466 10.2154 109.824 10.1412 110.186C10.6493 110.315 10.5793 109.999 10.9379 109.866C11.0554 110.269 10.5834 110.972 10.1969 111.247L10.8482 111.639C11.4759 110.825 12.5675 109.681 13.5786 109.938C13.4146 110.422 13.0858 110.412 13.3518 111.078C13.5095 111.01 13.6878 110.847 13.8764 110.688C13.6827 112.157 13.4879 113.646 13.3044 115.082C12.8076 115.373 12.4994 115.677 13.2116 115.81C13.2075 115.84 13.2044 115.869 13.2002 115.898C12.1551 116.232 11.7687 115.288 10.9956 115.547C10.9112 115.09 11.6656 114.958 11.2534 114.609C10.4576 114.511 9.92889 114.446 9.27646 114.667C9.91034 114.82 9.09507 115.096 10.0969 115.366C9.71141 115.619 8.69517 115.719 8.73536 115.947C9.06207 115.84 9.28679 115.641 9.85673 115.934C8.77865 116.179 7.65624 116.193 6.55133 115.834C6.59156 115.727 6.7008 115.623 6.82757 115.523C5.39185 116.32 3.23458 116.113 2.274 117.039L2.69865 117.225C3.04597 116.968 3.74891 116.94 4.02925 117.177C2.95013 117.421 4.79298 118.018 3.65306 118.405C2.08539 118.812 0.691885 117.821 -0.163576 118.84C1.32784 118.944 3.33872 119.489 3.94473 119.037L2.98207 118.996L5.17848 117.764C5.263 118.223 7.11721 117.475 7.08009 118.218C6.32357 118.351 5.63301 118.343 5.04138 118.42C5.18259 118.739 7.06566 118.592 7.86032 118.689L6.8595 118.419C8.64877 117.812 10.9348 118.012 12.6705 117.55C11.9717 117.849 12.4437 117.976 12.924 118.111C12.8941 118.344 12.8664 118.572 12.8395 118.798C12.5005 118.754 12.2118 118.514 12.3531 118.632C12.2881 118.939 12.519 118.987 12.8148 119.002C12.753 119.516 12.6943 120.008 12.6397 120.474C12.35 120.582 12.0892 120.676 11.8789 120.747L12.3293 120.353C10.9462 121.31 9.54959 120.316 8.12624 121.041C8.185 120.899 8.34781 120.844 8.08191 120.812C6.32354 120.673 5.62475 122.011 4.21168 121.391L4.38897 120.965C4.26837 121.016 3.43559 121.367 3.60152 121.84C4.78473 121.684 5.00841 121.488 6.06692 121.616C5.63301 122.003 4.68992 122.327 3.99524 122.33L3.91898 123.078C3.02744 123.868 2.11836 122.709 1.23096 123.498L2.274 124C2.24306 124.033 2.16064 124.051 2.0957 124.076C2.56776 124 2.97382 123.901 3.08617 123.723C4.65488 123.317 5.46089 124.387 5.71341 124.79C6.44828 125.031 5.45058 125.733 5.5392 126.193C6.71933 126.037 6.65132 125.206 7.83352 125.051C8.20661 125.168 7.97988 125.365 7.81496 125.422L8.68795 125.002C8.73228 125.233 10.7576 125.402 9.55785 125.933C9.37952 125.91 9.0487 125.933 8.79205 125.899C10.4422 126.439 13.2982 127.032 13.2075 127.869C14.1083 128.056 13.8578 127.649 15.2915 127.899C15.9574 127.305 15.239 126.694 16.8056 126.286L15.5699 125.99C15.3152 126.105 15.104 126.252 14.8257 126.345L16.1131 126.276C15.2998 126.552 15.4451 126.869 15.2049 127.441C13.2271 127.498 12.6829 126.462 11.6811 126.188C12.1922 125.813 13.0035 125.834 13.0323 125.435C14.0423 125.492 14.9762 125.639 15.4256 125.125C15.6276 125.073 15.7883 125.081 15.9337 125.103C16.4644 125.376 15.7007 125.898 16.988 126.058C17.5652 125.893 18.2342 125.573 18.9278 125.374C18.9289 125.485 18.9463 125.587 19.0267 125.656C16.5253 126.625 19.0773 126.862 16.3717 127.655C16.381 128.628 17.4436 128.757 18.8907 128.634C17.9476 128.219 19.4906 127.208 18.2372 126.533C19.3463 126.283 19.841 125.668 20.3831 125.244C20.4543 125.255 20.5274 125.258 20.5986 125.276L20.5872 125.404C22.2817 125.688 23.4711 125.192 24.679 124.8L24.9398 124.874C24.0916 125.896 23.0475 125.395 22.3786 125.987C24.0451 127.011 24.6152 124.983 26.5384 125.068C26.9569 125.373 27.0155 125.562 26.8847 125.696C26.6033 125.783 26.3179 125.879 26.0261 125.985C25.4737 126.094 24.8532 126.206 24.6574 126.501C24.1709 126.691 23.6814 126.876 23.1917 127.053C23.1361 126.934 22.7166 126.841 22.8341 126.564C22.5476 126.905 20.6707 127.053 19.3452 126.891C19.0422 127.604 20.4945 127.481 21.3324 127.806C21.4962 127.725 21.6612 127.68 21.8261 127.64C22.7403 127.776 23.4205 127.798 24.0008 127.76C24.6172 127.863 25.1985 127.895 25.7086 127.559C25.8077 127.547 25.9066 127.535 26.0127 127.524C27.2805 127.528 25.9158 128.215 26.0138 128.298C27.5505 128.634 26.6806 127.705 27.1702 127.54C27.3578 127.496 27.5124 127.483 27.6742 127.463C27.8062 127.465 27.9174 127.461 28.0608 127.467C30.3694 127.991 31.1507 129.699 33.11 130.819L32.1525 129.41C35.3486 128.442 34.2881 130.233 36.8369 128.957L36.636 131.158C37.5615 130.063 39.7188 131.078 40.598 131.686L41.4792 130.194C43.4241 131.109 44.7012 131.517 45.2464 132.923L45.1123 131.519C45.8225 132.427 52.7425 131.679 50.2905 133.959C50.879 133.667 51.4346 132.968 52.6879 133.175L52.8229 134.574C54.6545 134.285 56.6931 134.092 57.1858 134.895C56.1881 135.189 55.8326 135.789 55.4831 136.388C60.3891 136.729 59.7708 134.804 60.4551 133.401C62.2084 133.216 64.1089 133.149 64.5274 133.958C63.5472 134.202 63.169 134.781 62.7959 135.361C66.8474 135.872 67.0546 134.499 67.5061 133.236L67.5133 133.241C68.1203 132.534 68.9778 132.203 69.9808 132.078L69.9704 133.038C70.6898 131.888 72.6038 132.763 73.3964 133.312L73.8458 132.253L74.592 132.843C74.7445 132.679 74.9146 132.542 75.0929 132.42C75.2785 132.445 75.4639 132.472 75.6495 132.496C76.4926 132.916 77.0924 133.364 77.4532 134.249L77.2481 132.858C77.9129 133.718 83.7878 132.528 81.8336 134.961C82.318 134.63 82.7499 133.898 83.8341 134.033L84.0362 135.421C85.5853 135.024 87.3168 134.712 87.7858 135.485C86.9509 135.838 86.683 136.457 86.4202 137.075C90.8201 137.132 89.9256 135.074 90.5707 133.617C90.5934 133.622 90.6151 133.63 90.6377 133.637C91.5808 134.084 92.6765 134.522 93.9812 134.613C97.1321 135.55 100.454 136.718 101.672 138.52C104.036 137.51 101.436 138.221 101.522 137.121C102.054 136.968 102.523 136.867 102.948 136.8C104.86 137.671 106.512 138.691 107.227 139.947C109.57 139.068 107.019 139.634 107.168 138.541C107.387 138.489 107.585 138.452 107.784 138.416C108.065 138.592 108.369 138.756 108.725 138.889C110.057 138.6 109.652 138.452 109.02 138.271C111.757 138.165 112.141 139.848 114.007 140.704C116.767 140.245 111.991 139.996 113.536 139.077C117.573 140.489 117.045 137.657 122.064 139.011C122.501 139.835 120.699 139.444 120.126 139.915C123.844 138.801 130.457 140.245 135.824 140.4C141.848 141.896 150.84 143.022 157.881 144.847L158.056 144.355C160.918 145.893 164.239 144.931 167.664 145.787L166.029 144.915C166.468 144.783 166.859 144.712 167.233 144.661C167.506 144.789 167.818 144.78 168.183 144.589C168.708 144.584 169.205 144.622 169.717 144.658C170.004 145.656 170.339 146.432 170.967 145.889L170.976 144.709C171.228 144.706 171.492 144.695 171.771 144.669L172.851 146.217C173.165 146.178 173.414 146.127 173.617 146.07C174.321 146.492 174.902 145.72 175.465 144.549C175.545 144.513 175.628 144.478 175.726 144.443C177.165 145.209 179.835 145.183 181.64 145.151C181.671 145.2 181.689 145.257 181.726 145.302C181.739 145.248 181.763 145.202 181.778 145.149C182.473 145.136 183.028 145.126 183.306 145.165C183.949 145.892 182.362 146.028 181.99 146.41C183.008 146.307 183.638 146.05 184.199 145.78C184.448 146.286 184.673 146.761 184.93 146.809C184.932 146.223 184.967 145.771 185.019 145.395C185.716 145.088 186.53 144.857 188.059 144.968L188.083 145.366C188.53 145.287 189.003 145.245 189.461 145.183C189.325 145.498 189.149 145.835 188.883 146.223C189.313 145.494 190.2 145.574 190.691 145.019C191.971 144.878 193.276 144.773 194.618 144.718C194.656 144.882 194.687 145.065 194.705 145.29C194.811 145.081 194.864 144.894 194.899 144.712C195.678 144.683 196.472 144.671 197.266 144.661L210.138 146.015C209.78 145.741 209.478 145.254 209.174 144.753C210.837 144.753 212.481 144.714 214.103 144.631C214.144 144.741 214.183 144.849 214.232 144.962L216.718 144.921L216.434 145.507C216.646 145.491 216.772 145.245 216.889 144.923L225.273 144.763C225.546 144.539 225.718 144.291 225.833 144.021C227.117 144.021 228.396 144.002 229.662 143.958C229.721 144.91 229.974 145.504 230.653 145.25L230.763 143.91C232.992 143.806 235.166 143.612 237.229 143.281L236.973 144.769C237.424 144.432 237.764 143.835 238.015 143.144C238.755 143.011 239.484 142.864 240.191 142.69C240.663 142.845 241.128 143.011 241.57 143.21L241.606 142.703C242.726 143.968 243.877 142.742 245.162 143.294L244.525 142.566C244.552 142.536 244.576 142.518 244.603 142.492L246.747 142.293L247.064 143.277C247.55 142.99 247.592 142.617 247.66 142.209L248.844 142.098C248.969 142.318 249.18 142.528 249.437 142.662C249.584 142.232 250.633 141.828 250.356 141.449C250.562 141.394 250.726 141.353 250.814 141.369C251.079 142.04 250.507 142.303 250.389 142.716C251.382 142.21 251.295 140.817 252.538 140.784L252.563 141.18C255.517 139.077 259.297 139.605 262.614 138.308C262.39 138.231 262.448 137.925 262.362 137.632C265.872 137.114 269.91 137.082 272.757 133.675C271.074 133.975 268.381 132.192 266.42 133.533C266.392 133.507 266.365 133.48 266.34 133.452L266.082 133.801C265.941 133.93 265.807 134.075 265.677 134.245C264.967 133.202 263.85 134.695 263.56 133.222C261.46 132.736 260.298 134.102 258.706 134.82C258.732 134.714 258.703 134.604 258.583 134.486C257.705 134.218 257.479 134.676 257.563 135.153C257.38 135.184 257.202 135.227 257.003 135.232C256.621 134.97 256.804 134.251 256.689 133.563L258.801 132.857L257.511 132.279C258.067 131.623 259.428 132.097 259.583 130.786C258.551 131.659 257.174 131.677 255.878 131.84C256.238 131.135 255.297 130.208 255.731 129.556L252.477 131.368L254.826 130.486C256.221 130.972 256.026 131.483 255.394 131.906C254.55 132.051 253.767 132.317 253.173 133.007C253.935 133.334 254.876 132.939 255.774 133.05C256.17 133.513 256.782 133.851 256.744 134.558C254.198 136.607 252.078 135.62 249.462 136.302C248.85 136.462 248.054 136.36 247.852 135.789C249.951 135.645 251.969 135.265 253.819 134.491C250.867 134.222 246.583 131.772 242.91 132.161C242.834 131.995 242.761 131.847 242.695 131.744C242.686 131.849 242.701 132.006 242.716 132.181C242.233 132.245 241.763 132.368 241.309 132.547C241.313 132.498 241.332 132.456 241.334 132.403C241.173 132.422 241.026 132.444 240.884 132.449C241.34 132.278 241.788 132.1 242.222 131.908C241.317 131.971 240.303 131.953 239.222 131.898C239.273 131.29 239.325 130.631 239.149 130.039C241.791 129.522 244.283 128.808 246.443 127.72C244.848 127.834 242.865 127.619 240.766 127.401C242.945 125.957 246.112 123.919 248.304 120.872C248.496 122.417 249.032 122.416 249.676 122.161L247.475 123.566L249.549 122.669C251.87 123.565 249.259 124.584 248.389 124.927C251.98 124.474 249.983 122.932 250.28 121.897C250.832 121.659 251.409 121.502 251.894 122.097C251.986 122.811 252.309 123.7 251.827 124.991L251.4 125.03C253.242 125.988 255.807 124.189 257.92 122.04L258.307 125.287C261.085 126.918 258.553 120.188 261.737 119.799C261.933 123.239 265.22 121.955 264.899 124.696C265.517 124.481 265.754 124.644 266.16 122.616C265.689 122.286 264.453 122.726 265.481 120.484C266.677 119.683 266.888 121.491 267.743 121.44C267.593 121.994 266.711 123.678 267.1 123.291C269.345 122.251 273.08 122.928 275.936 117.683C275.117 118.098 274.699 120.119 273.91 118.898C274.173 117.428 274.646 117.757 274.988 117.019C275.325 114.272 273.675 118.736 273 116.583L275.244 113.55L274.716 110.871L279.802 104.222C276.916 101.845 273.744 111.831 271.753 107.775C272.304 106.992 272.022 106.199 272.033 105.506C270.982 106.722 269.994 106.559 269.189 108.277L267.884 108.003C268.139 106.531 269.239 103.01 270.575 103.297C267.69 102.678 264.761 105.031 261.929 106.15C261.656 105.975 260.935 106.737 260.117 106.309L261.731 105.474L260.822 104.833L264.495 102.993C261.463 102.519 260.072 105.107 257.597 104.185C257.988 103.969 257.605 103.785 257.509 103.614C256.723 103.954 255.783 103.953 255.3 104.408L254.048 104.392C254.061 104.018 254.543 103.106 255.822 103.125C254.628 103.108 253.511 103.232 252.425 103.406C251.967 103.07 251.485 103.004 250.864 103.631C251.059 101.801 252.257 102.63 252.164 101.917C251.414 101.287 250.674 101.505 249.928 102.043C249.66 97.0757 250.528 101.015 250.707 99.3725L250.954 98.8319L251.053 98.8167C251.088 99.4159 251.08 100.16 250.961 101.237C251.057 100.164 251.482 100.528 251.395 98.7886L252.341 98.6848C252.377 98.9054 252.414 99.1803 252.447 99.5699C252.47 99.2285 252.467 98.9477 252.456 98.6728L256.569 98.1974C256.351 97.7786 256.133 96.546 255.904 95.9529C256.04 93.4074 255.803 94.1275 255.644 93.5837L256.297 93.5424C256.225 94.1979 256.195 95.0538 256.302 96.3597L256.617 94.9298L256.627 96.0789L257.056 95.6891C256.968 94.6188 256.908 94.0942 256.861 93.5061L257.21 93.483C257.264 94.3035 257.316 95.3256 257.568 96.5692L258.216 96.1714L258.184 96.7918C258.238 96.7444 258.254 96.4847 258.261 96.1483L260.436 94.7869C260.614 93.9149 260.503 92.9281 260.381 91.75L261.105 91.4207L261.034 92.038C261.103 91.9947 261.136 91.7349 261.162 91.3986L261.362 91.3059C261.481 93.2845 261.622 95.0195 261.873 94.4506L261.678 91.1609L261.81 91.0995L261.922 91.2708C261.898 91.2123 261.878 91.1399 261.856 91.0794L263.368 90.3816L263.47 93.0137C263.597 92.4378 263.625 91.3845 263.595 90.2769L263.844 90.1621L263.823 90.5568L264.425 90.2084L264.343 87.3809C264.323 88.0324 264.198 89.2528 264.074 88.6708C264.075 88.3416 264.059 87.9921 264.037 87.6256L264.038 86.5129L264.006 87.11C263.937 86.0467 263.868 84.8293 264.057 83.3934C263.514 83.3984 262.741 81.4409 262.58 84.6843C262.598 84.1224 262.6 83.4619 262.522 83.1175L262.155 86.5018L262.461 87.5843C262.215 89.8268 261.663 90.2346 261.268 89.6444C261.223 88.8731 261.177 88.1533 261.129 87.6146L261.088 89.2779C260.976 88.9728 260.889 88.5731 260.849 88.0978C261.472 86.9519 261.203 82.8869 262.037 85.1042C262.01 84.0601 261.871 82.2224 262.069 81.6545C261.054 82.8426 260.169 80.9586 259.101 84.4669C259.567 86.4414 259.29 87.0546 259.03 88.1008C259.018 88.0042 259.006 87.8954 258.99 87.8229L258.967 88.3677C258.812 89.0604 258.688 89.9708 258.768 91.5203L258.857 91.2445L259.147 92.2877C259.131 92.7086 259.1 93.066 259.061 93.3651L259.001 93.3682C259.017 93.3964 259.034 93.4144 259.049 93.4356C258.802 95.2129 258.22 94.8061 257.95 93.4356L259.001 93.3682C258.757 92.9392 258.553 91.7006 258.301 91.0995C258.439 89.9003 258.437 89.4331 258.38 89.2095C258.455 89.2568 258.553 89.44 258.691 89.8258C258.629 88.9205 258.475 87.4232 258.523 86.668C258.551 86.7737 258.577 86.8905 258.6 87.0244C258.611 86.7798 258.605 86.5441 258.605 86.3064C258.632 86.2672 258.66 86.231 258.687 86.1806C258.653 86.1755 258.626 86.2008 258.606 86.2411C258.603 84.8232 258.473 83.4599 258.507 81.7239C257.885 79.556 257.729 87.7898 257.118 86.5331C257.156 84.4708 257.36 82.6694 256.951 82.9453L257.057 82.5032C256.645 83.9271 256.559 81.8105 256.449 81.3202C256.573 80.9859 256.685 80.4491 256.783 79.7533C256.879 79.2942 257.004 78.6689 257.144 77.8995C257.298 79.3616 257.381 76.3389 257.63 76.7728C257.539 78.0193 257.31 80.144 257.35 80.4944C257.585 75.8655 258.758 83.2283 258.792 79.9436C258.858 78.831 258.95 77.81 259.047 76.808C259.531 77.3287 260.066 76.1324 260.489 73.5788C260.237 74.2091 260.238 73.7217 260.28 72.9514C260.436 72.9031 260.593 72.8105 260.768 73.1035C260.77 73.1397 260.773 73.1599 260.777 73.1901L260.763 74.473C260.842 74.6995 260.926 74.7076 261.014 74.6441C260.931 75.1677 260.875 75.5816 260.888 75.7205C260.953 75.1757 261.026 74.8112 261.103 74.5635C261.237 74.4105 261.379 74.1779 261.537 74.2524C261.581 74.3008 261.629 74.3672 261.676 74.4477L261.856 76.937C261.976 76.4757 262.176 76.1706 262.393 75.9985C262.494 76.1414 262.579 76.1294 262.646 75.8696C262.704 75.8555 262.765 75.8353 262.823 75.8445C262.809 75.5232 262.784 75.2946 262.753 75.0993C262.804 74.7217 262.863 74.3703 262.92 74.0088C262.928 74.3844 262.949 74.8112 262.987 75.3097C263.415 73.5606 264.032 71.0474 264.312 67.6791C264.549 69.6608 264.703 68.8664 264.896 68.3426C265.024 68.3487 265.157 68.2924 265.288 68.2883C265.291 68.2974 265.295 68.3014 265.299 68.3115C265.384 69.0012 265.539 69.8249 265.533 71.1752L265.431 71.282C265.778 71.6968 266.096 70.9436 266.367 69.7071C266.485 69.6598 266.604 69.6749 266.72 69.8541L266.782 72.3976C267.082 71.6465 267.636 71.281 268.079 71.3615C268.106 69.8713 267.69 70.1472 267.909 68.3487C267.687 68.3034 267.495 68.6205 267.552 70.2297C267.513 70.2236 267.484 70.126 267.458 69.994C267.463 69.1976 267.3 67.7173 267.26 66.4677L267.685 65.6623C267.802 66.1908 267.931 66.4688 268.06 66.6631C268.031 66.9188 268.025 67.1002 268.102 67.1163L268.116 66.7457C268.296 66.9944 268.469 67.1475 268.59 67.6993C268.406 68.3356 268.281 69.2248 268.326 70.8358C268.99 69.112 269.959 66.6419 270.572 63.301C270.82 66.4628 271.323 62.6404 271.794 63.9978C271.848 64.6905 271.986 65.5233 271.874 66.8696L271.734 66.9693C272.372 67.653 273.15 65.5051 273.769 63.0754L274.01 66.2321C274.979 67.4445 273.913 61.1572 274.946 60.3073C275.13 63.6766 276.165 61.9165 276.154 64.6715C276.349 64.3672 276.433 64.4922 276.496 62.427C276.33 62.1732 275.94 62.7924 276.2 60.4231C276.566 59.4535 276.697 61.2075 276.977 61.0283C276.946 61.5992 276.714 63.3946 276.828 62.9545C277.53 61.5902 278.781 61.6998 279.542 56.0893C279.287 56.6229 279.219 58.6822 278.917 57.5936C278.954 56.1014 279.12 56.356 279.208 55.5757C279.227 52.8107 278.834 57.4688 278.539 55.4438L279.175 52.1099L278.909 49.5411L280.358 42.2106C279.325 40.2944 278.621 50.6357 277.826 46.928C277.981 46.0712 277.861 45.3301 277.841 44.6423C277.536 46.0017 277.205 45.9897 276.998 47.8072L276.56 47.7326C276.593 46.2394 276.833 42.5953 277.283 42.6788C275.703 42.3968 274.361 49.8623 272.824 47.1627C272.767 46.4618 273.049 46.2786 272.938 45.8034C272.71 46.6854 272.344 47.6611 272.344 48.5735C272.372 48.0046 272.431 46.8657 272.571 46.769C271.727 48.2311 271.365 43.6827 270.801 45.8829C270.801 44.0452 271.224 44.6927 271.167 44.0009C270.701 43.1048 270.334 44.7058 269.944 46.1598C269.924 46.2233 269.905 46.2948 269.886 46.3752C269.632 47.2976 269.368 48.1053 269.059 48.0931C269.263 46.3683 269.131 45.7581 268.961 45.0885C269.039 44.4199 269.369 45.8346 269.371 44.1268L269.389 44.6988L269.523 43.581C269.359 43.7432 269.003 43.5902 268.954 45.0613C268.871 44.737 268.781 44.3977 268.716 43.9073C268.015 46.1971 266.584 46.7369 265.55 48.5151C265.894 42.0324 264.425 48.3146 264.405 42.8077C264.179 42.7623 263.817 43.7311 263.771 45.7943C263.907 44.7793 264.195 46.4518 264.141 47.5827C263.978 47.7769 263.771 47.9139 263.597 48.3136C263.343 47.8545 263.179 48.4345 263.037 49.3105C263.035 49.3095 263.032 49.3095 263.029 49.3085L262.852 48.0459C262.842 48.4406 262.828 48.8494 262.812 49.2552C262.775 49.2481 262.74 49.229 262.701 49.227C261.701 47.6491 263.536 48.8202 262.261 46.9342C262.106 46.8043 261.92 46.6683 261.749 46.5364C261.863 45.3915 262.032 44.2839 262.183 43.6848L262.004 43.0333C262.153 42.4533 262.299 41.7897 262.438 41.0022C262.226 41.3859 262.098 42.5741 261.93 42.7674L261.752 42.1139C261.839 41.0506 261.989 41.1815 262.097 40.4786C262.194 37.7156 261.639 42.3606 261.38 40.3267L262.16 37.0128L261.946 34.4381L263.749 27.1549C262.66 25.2075 261.602 35.5235 260.839 31.7928C261.029 30.941 260.919 30.1958 260.915 29.509C260.547 30.8584 260.183 30.8362 259.916 32.6467L259.438 32.5591C259.51 31.0668 259.858 27.4318 260.353 27.5294C258.611 27.1931 257 34.6233 255.378 31.9016C255.328 31.2007 255.639 31.0225 255.525 30.5442C255.336 31.1736 255.074 31.8503 254.933 32.5179C254.921 32.5118 254.91 32.5067 254.897 32.5007C254.944 32.0235 255.011 31.5622 255.107 31.5038C254.675 32.1685 254.37 31.5642 254.105 30.9299C254.202 30.6963 254.303 30.4596 254.404 30.217C254.936 30.6077 255.47 32.0527 255.512 27.5809C255.674 27.1982 255.837 26.8104 256.001 26.4208C255.978 26.5939 255.957 26.7873 255.939 27.024C255.985 26.7914 256.016 26.5416 256.052 26.298L256.061 26.2809C257.92 25.6707 259.882 25.6223 261.882 25.6958C261.844 25.8529 261.81 26.026 261.783 26.2335C261.951 25.2165 262.214 26.3805 262.443 25.7189C264.453 25.8096 266.484 25.9607 268.47 25.7048C268.212 25.58 268.338 25.2921 268.289 24.9849C269.663 25.0664 271.092 25.2084 272.532 25.28C272.532 25.587 272.777 25.9717 273.128 26.2133C273.304 25.87 274.134 25.6374 274.245 25.3223C276.791 25.3111 279.317 24.9155 281.59 23.403C279.225 23.3063 275.78 20.2855 272.924 22.3829C272.257 21.1999 270.632 22.4203 270.554 20.9089C267.318 19.6773 265.473 21.9702 262.246 21.4607C261.834 21.1213 262.186 20.4537 262.176 19.7529L264.863 19.5121L263.407 18.6664C264.202 18.1377 265.761 18.9019 266.192 17.6463C264.199 18.5405 261.686 17.6221 259.594 17.9162C259.816 17.3875 260.025 16.8872 260.222 16.4108C260.232 16.4118 260.242 16.4128 260.251 16.4128C261.19 16.6254 262.14 16.8055 263.096 16.9687C262.879 17.1841 262.551 17.3493 262.432 17.5678C262.886 17.451 263.205 17.2556 263.479 17.0412C269.991 18.1055 276.803 18.1055 282.983 17.8366C283.343 17.8829 283.781 17.7702 284.255 17.588C286.322 17.7077 288.364 17.7782 290.344 17.8245C291.422 18.0501 293.39 16.723 294.952 16.3354C293.429 15.5075 293.044 16.2447 291.438 15.8077C290.683 15.2992 290.454 14.3113 290.133 13.3266C293.326 13.0597 296.417 12.4193 299 10.7529C295.917 10.8717 290.903 8.18107 287.588 10.5474C286.509 9.43166 284.624 10.8031 284.248 9.30483C284.019 9.25849 283.822 9.25456 283.607 9.22536C283.599 9.10855 283.591 8.99175 283.594 8.86085L283.529 9.21519C282.762 9.11553 282.046 9.09039 281.397 9.15984C281.172 9.05117 280.977 8.92927 280.84 8.78326C282.692 8.24354 284.444 7.38362 285.896 5.80272C283.758 6.18133 280.174 3.96003 277.946 6.39782C277.763 6.28203 277.636 6.11688 277.608 5.87118C278.077 5.7131 278.376 5.34054 278.637 4.92164C278.767 4.92969 278.903 4.94782 279.056 4.99011L278.789 3.78884L276.771 4.47859C276.822 4.54606 276.866 4.58634 276.914 4.6387C276.413 4.95286 276.152 5.52582 275.919 6.12797C275.714 6.05948 275.546 5.89032 275.455 5.48453C272.868 4.96393 271.525 6.62337 269.448 7.26278C268.913 7.21848 268.499 7.03923 268.412 6.58208C269.011 6.36257 269.311 5.82488 269.598 5.27609L270.057 5.14217L268.597 4.56417C269.231 3.91169 270.772 4.37891 270.952 3.06686C268.853 4.64373 265.504 3.42533 263.674 5.28112C264.093 5.44123 264.565 5.42814 265.055 5.38785L264.179 5.82084L265.619 5.34054C265.954 5.31334 266.291 5.2932 266.623 5.33045C266.783 5.4976 266.971 5.65168 267.15 5.80976C266.992 6.03431 266.872 6.2931 266.77 6.56699C265.882 6.24074 264.995 6.0474 264.16 6.42502C263.252 6.50456 262.487 4.50176 260.806 4.38998L260.68 5.43921C260.669 5.43419 260.666 5.42814 260.654 5.4231C260.541 5.41707 260.465 5.42612 260.365 5.42612C260.1 5.13312 259.739 4.83303 259.321 4.51685L259.304 4.29935L259.125 4.37084C258.36 3.80596 257.447 3.18971 256.604 2.48285L256.621 2.4768L256.603 2.48183C255.456 1.51818 254.447 0.385383 254.155 -1.02533C252.706 -0.175482 254.237 -0.715194 254.013 0.366249C251.31 1.38326 251.521 -0.801797 250.366 -1.82988C248.736 -1.39791 251.436 -1.11394 250.445 -0.214752C249.435 -0.891422 248.898 -0.620557 248.327 -0.287263C248.078 -0.654786 247.92 -1.01526 248.477 -1.43514C246.689 -2.10074 244.57 -1.42811 242.781 -0.806839C241.58 -0.980016 240.319 -1.24686 239.099 -1.38884C239.086 -2.1531 239.073 -2.92645 239.061 -3.71386C238.731 -3.71991 238.4 -3.73502 238.071 -3.74206C238.198 -2.72606 238.043 -2.03631 237.963 -1.47443C237.935 -1.47543 237.906 -1.48047 237.877 -1.48149C237.669 -1.56908 237.437 -1.65366 237.216 -1.73926C237.274 -2.35954 237.326 -3.03317 237.409 -3.76018C236.209 -3.78636 235.009 -3.83167 233.808 -3.86188C233.719 -3.62122 233.626 -3.32821 233.528 -2.98485L233.468 -3.00295L233.521 -3.86994C233.356 -3.87397 233.189 -3.88002 233.024 -3.88405C232.866 -3.72595 232.694 -3.74609 232.518 -3.89813C232.242 -3.90517 231.967 -3.91425 231.691 -3.9213C231.581 -3.66453 231.473 -3.70178 231.377 -3.93035C230.981 -3.94142 230.585 -3.95352 230.19 -3.96359C228.606 -4.43283 227.032 -4.94233 225.608 -5.55355L225.48 -5.05914C225.057 -5.46493 224.602 -5.67035 224.128 -5.78312C224.111 -5.95431 224.111 -6.12548 224.159 -6.29062C224.116 -6.08722 224.073 -5.93316 224.032 -5.80126C222.792 -6.05903 221.417 -5.68545 220.058 -6.22416L220.956 -5.4025C219.588 -4.63823 218.917 -5.25448 217.669 -4.98663L217.111 -6.50006C215.753 -6.13253 216.427 -5.32699 215.411 -4.63723C214.589 -5.36727 212.996 -5.20514 211.969 -5.10243C211.669 -5.20413 211.36 -5.26657 211.042 -5.30483C210.988 -5.81434 211.703 -6.00868 211.896 -6.35506C211.13 -6.16676 210.74 -5.74284 210.322 -5.36725C209.402 -5.41761 208.439 -5.41761 207.5 -5.82239L208.31 -5.04605C207.877 -4.88191 207.43 -4.75201 206.981 -4.62816C206.316 -4.63823 205.745 -4.8376 204.926 -4.71375L204.412 -6.25538C202.963 -5.96336 203.633 -5.11451 202.526 -4.49222C201.388 -5.57167 198.613 -5.06316 198.023 -5.20614C197.697 -5.92812 198.665 -6.06406 198.922 -6.44468C197.232 -6.16273 197.163 -4.76611 195.147 -5.00576L195.165 -5.40351C190.082 -3.94144 184.054 -5.21823 178.543 -4.52344C178.896 -4.40463 178.768 -4.11161 178.874 -3.80449C173.277 -3.92332 166.885 -4.52042 162.083 -1.72616C161.302 -1.82183 160.519 -1.92152 159.728 -2.00307C159.27 -2.05342 158.813 -2.08765 158.354 -2.13197C158.295 -2.24675 158.224 -2.35149 158.14 -2.42701C158.117 -2.33939 158.066 -2.25179 158.009 -2.16519C156.802 -2.27999 155.606 -2.37767 154.415 -2.45821C154.757 -2.72405 155.182 -2.92543 155.422 -3.03518C154.678 -2.97477 154.284 -2.76735 154.076 -2.48139C146.316 -2.98786 139.026 -2.81466 133.924 -2.30516C131.937 -2.9637 129.238 -2.69685 127.192 -2.79653C128.341 -2.55589 127.975 -2.0494 127.091 -2.04032C120.933 -1.76141 126.683 -1.5701 120.517 -0.86222C119.404 -0.686007 117.793 -0.494684 115.853 -0.287263C116.534 -0.543019 116.323 -0.932697 116.171 -1.34857C116.978 -1.77551 118.024 -1.6013 118.806 -1.98798L116.117 -1.51069C116.066 -1.70504 116.058 -1.90037 116.194 -2.08765C116.038 -1.80068 115.883 -1.59526 115.734 -1.44321L115.434 -1.38984L115.604 -1.32439C114.727 -0.593359 114.173 -1.72416 115.362 -0.236907C114.405 -0.136212 113.379 -0.0335112 112.294 0.0722256L113.842 -1.24083C112 -1.18543 109.298 -0.705141 110.248 -2.03429C107.03 -0.437282 101.385 -1.06259 97.365 -0.133191L97.6278 -1.34253C95.5551 0.125588 89.9822 -1.38784 88.1867 0.376317L87.8786 -0.114056L83.7486 1.53631C81.8748 1.40441 82.4973 -0.419165 82.349 0.0873351C78.2375 0.439748 75.0126 0.568643 72.3585 -0.0254483C71.7122 1.60277 67.3895 2.08307 63.9513 2.33884C55.6532 1.96426 47.0491 2.28446 38.6108 3.03665C32.2319 3.5965 25.8529 4.42925 19.8823 5.75137C19.7153 5.0878 19.5565 4.70616 19.4246 5.21064L19.4937 5.84199C19.171 5.91549 18.8546 5.99303 18.5361 6.06855C18.5496 5.89637 18.5712 5.73424 18.6114 5.59427C18.3084 5.0012 18.1558 5.37477 18.0662 6.17931C16.9438 6.4512 15.8347 6.73918 14.7473 7.05031C14.6143 6.63848 14.4938 6.27901 14.4062 6.26994C14.4453 6.58612 14.4752 6.86303 14.501 7.11677C14.4278 7.13791 14.3495 7.15705 14.2763 7.17819C13.8929 7.25171 13.493 7.39469 13.0869 7.56385C13.0921 7.51653 13.0932 7.47625 13.0982 7.42692C13.0941 7.4823 13.0838 7.51955 13.0777 7.56788C11.5182 8.22044 9.82994 9.45985 8.20146 10.5675L5.78554 10.9361C6.09785 11.3339 6.45035 12.5462 6.78532 13.1191C6.75541 14.6588 6.84405 14.997 6.97185 15.1411C6.78532 15.1773 6.5967 15.2126 6.41116 15.2529C6.44313 14.6345 6.41324 13.8512 6.23388 12.7466L5.8917 14.2057L5.82059 13.0578L5.27225 13.4877C5.42274 14.4201 5.5248 14.9316 5.60932 15.4381C5.45779 15.4754 5.31347 15.5227 5.16302 15.562C5.05375 14.7726 4.9249 13.8069 4.54664 12.658L3.70975 13.1171L3.71697 12.4948C3.64896 12.5473 3.64274 12.808 3.65203 13.1452L0.845486 14.7131C0.837234 14.7493 0.839306 14.7887 0.833094 14.8259L0.375463 14.6719L-0.0810966 14.9255C-0.0810966 14.9255 -0.171795 16.1359 -0.216124 18.0199C-0.475855 16.1722 -0.750021 14.6316 -1.03451 15.1995L-0.548014 18.7569L-0.235701 19.0671C-0.258383 21.1142 -0.215088 23.7152 0.0240307 26.4107C0.177599 28.1477 0.415684 29.9179 0.763008 31.6016C0.79805 32.7977 0.887712 33.9698 1.0516 35.0785C0.866066 35.2829 0.664059 35.5073 0.408468 35.2094L0.0188541 32.6941C-0.193441 33.4764 -0.708797 33.9084 -1.17261 33.8842C-1.0015 35.3644 -0.61606 35.0392 -0.601629 36.8506C-0.371763 36.8678 -0.217159 36.5294 -0.486177 34.9394C-0.256311 34.9466 0.0332851 37.332 0.354853 38.488L-0.316109 40.2571C-0.405769 40.09 -0.455244 39.8856 -0.486177 39.663L-0.223339 42.4111C-0.451136 42.405 -0.598522 41.7202 -0.694365 40.5914C-0.854145 41.0768 -0.891226 42.0484 -0.933485 42.9275C-1.09737 42.9235 -1.26434 42.9214 -1.4313 42.9195C-1.45606 41.5128 -1.41277 40.6308 -1.15096 40.5632L-1.73433 40.6428C-1.78277 38.0328 -0.686113 38.5484 -1.35503 34.435C-1.80234 36.2233 -2.44758 38.8021 -2.59186 42.1985C-3.28243 39.1022 -3.24839 42.9567 -3.90702 41.678C-4.06163 40.9993 -4.31828 40.1927 -4.39762 38.8444L-4.27289 38.7267C-5.01397 38.1396 -5.48809 40.373 -5.74165 42.8622L-6.45176 39.7718C-7.19902 39.081 -6.61876 41.3939 -6.36211 43.3737C-6.69502 43.4542 -7.02381 43.5428 -7.34437 43.6525C-7.74528 43.2437 -8.11117 43.2437 -8.35751 41.6336C-8.48118 41.9116 -8.57088 41.8944 -8.4441 43.0866L-9.97155 42.1724L-10.288 42.3868C-10.288 42.3868 -10.455 45.7922 -10.3261 50.1554C-10.323 50.3114 -10.323 50.4564 -10.3179 50.6216C-10.3158 50.6136 -10.3158 50.6004 -10.3138 50.5914C-10.2787 51.6214 -10.2272 52.6978 -10.154 53.7934C-9.93651 57.0217 -9.52115 60.3919 -8.77802 63.1277L-8.80689 64.4408C-8.61106 64.7107 -8.46985 64.6905 -8.36577 64.4791C-8.12353 65.18 -7.85247 65.8143 -7.55152 66.3752L-7.58863 66.8584C-7.52987 66.8041 -7.44535 66.7749 -7.3588 66.7236C-6.98876 67.3458 -6.57547 67.8564 -6.11166 68.2199L-6.10959 68.8482L-5.21083 68.6649C-4.08327 68.8462 -3.66584 68.0698 -3.66584 68.6971L-5.16754 68.7918C-4.0513 68.8472 -4.77588 69.262 -5.1521 69.6608C-4.68725 69.6688 -4.23477 69.694 -3.84826 69.8431C-3.66172 69.5793 -4.03687 69.6034 -4.22448 69.4876C-3.66172 69.2017 -2.91139 68.5249 -2.15999 68.7304C-1.03243 68.6619 -1.97035 69.7272 -0.655212 69.6467C4.30548 69.4413 9.16619 69.39 14.0733 69.1059L13.2704 72.1811C14.2165 73.1035 14.8051 70.9406 15.3606 69.0244C15.9883 68.9822 16.6222 68.9156 17.253 68.8633C17.2953 69.1029 17.3385 69.3375 17.3654 69.5631C17.458 69.262 17.558 69.0324 17.658 68.829C18.1228 68.7888 18.5846 68.7565 19.0505 68.7102C19.0958 68.971 19.1432 69.2358 19.1926 69.5047C19.1143 70.1582 18.9989 70.7372 18.8391 71.0986C18.8052 71.1098 18.7701 71.1188 18.7361 71.1289C18.6918 70.1219 18.9206 69.411 18.733 68.9428C18.4599 70.2297 17.5023 67.8715 17.6518 71.3696C17.4776 71.4047 17.3323 71.4431 17.2324 71.4964C17.2086 71.3484 17.1829 71.2003 17.1591 71.0564C17.1602 71.2367 17.1591 71.4027 17.1561 71.5589C17.1128 71.6002 17.084 71.6475 17.087 71.7098C17.1128 71.7098 17.1282 71.717 17.1519 71.718C17.1004 73.8224 16.7098 73.5365 16.3439 73.1861C16.3594 73.0924 16.3799 73.0149 16.3902 72.9081C16.3738 73.0229 16.3521 73.1035 16.3264 73.1699C16.0635 72.9163 15.8182 72.6553 15.7245 73.2506C15.5802 73.2355 15.4482 73.325 15.3636 73.7439C15.3462 73.763 15.3297 73.7832 15.3122 73.8024L15.3173 73.5606L15.1689 73.9664C14.6361 74.5737 13.8052 75.365 12.118 75.5957C7.59644 76.6117 2.8254 78.2137 -1.69003 79.3657C-1.73537 78.9871 -0.862364 78.5047 0.0147457 78.0224C-0.593378 78.1764 -1.4787 78.5329 -2.11569 78.4353C-0.830427 78.7555 -3.86062 79.3989 -2.92786 79.421C-5.71793 81.8356 -10.3107 82.0451 -12.8224 83.9714C-12.7534 84.6672 -12.1639 90.738 -11.5712 96.8351C-11.5465 97.0747 -11.5207 97.3154 -11.4949 97.555C-11.563 97.4945 -11.6144 97.423 -11.6248 97.3203C-11.9288 97.3979 -12.0659 97.3667 -12.1051 97.8833C-11.8309 97.9456 -11.2229 97.7886 -11.5681 98.3826C-12.1226 98.6264 -12.3875 98.1884 -12.8287 98.2347C-12.7977 98.0916 -12.4824 97.6416 -12.6524 97.7524C-13.7336 98.0977 -15.7403 98.0755 -16.7649 99.4813C-16.3763 99.3473 -16.335 98.8319 -15.8187 99.1027Z" fill="#45E99E"/>
</g>
</g>
</g>
</g>
<defs>
<clipPath id="clip0_1_42">
<rect width="299" height="141" fill="white"/>
</clipPath>
<clipPath id="clip1_1_42">
<rect width="299" height="154" fill="white" transform="translate(0 -6.5)"/>
</clipPath>
</defs>
</svg>
