<svg width="24" height="25" viewBox="0 0 24 25" fill="none" xmlns="http://www.w3.org/2000/svg">
<path d="M5.29547 17.9026C5.76345 18.1959 5.90507 18.813 5.6118 19.281C5.28546 19.8018 5.11264 20.1548 5.03897 20.4071C4.97411 20.6293 5.00655 20.6989 5.01978 20.7273C5.03743 20.7651 5.05841 20.8024 5.08254 20.8382C5.11831 20.8913 5.25254 21.054 5.9993 21.1518C6.73298 21.2479 7.76753 21.25 9.28217 21.25H14.7177C16.2324 21.25 17.2669 21.2479 18.0006 21.1518C18.7474 21.054 18.8816 20.8913 18.9174 20.8382C18.9415 20.8024 18.9625 20.7652 18.9801 20.7273C18.9933 20.6989 19.0258 20.6293 18.9609 20.4071C18.8872 20.1548 18.7144 19.8018 18.3881 19.281C18.0948 18.813 18.2364 18.1959 18.7044 17.9026C19.1724 17.6094 19.7895 17.751 20.0828 18.219C20.433 18.7778 20.7273 19.3209 20.8808 19.8467C21.0429 20.4022 21.0629 20.9929 20.7928 21.5724C20.7307 21.7055 20.6583 21.8335 20.5763 21.9553C20.0376 22.7554 19.1421 23.0194 18.2603 23.1349C17.3809 23.2501 16.2138 23.25 14.7926 23.25H9.20725H9.20724C7.78611 23.25 6.61895 23.2501 5.73954 23.1349C4.85782 23.0194 3.96235 22.7554 3.42357 21.9553C3.34158 21.8335 3.26917 21.7055 3.20712 21.5724C2.93702 20.9929 2.95695 20.4022 3.1191 19.8467C3.27259 19.3209 3.56688 18.7778 3.91709 18.219C4.21037 17.751 4.82749 17.6094 5.29547 17.9026Z" fill="#141B34"/>
<path fill-rule="evenodd" clip-rule="evenodd" d="M12 1.75C7.52225 1.75 3.75 5.51857 3.75 10.0869C3.75 14.7671 7.60753 17.8945 10.8271 19.9273L10.84 19.9355L10.8533 19.9431C11.2022 20.144 11.5974 20.25 12 20.25C12.4026 20.25 12.7978 20.144 13.1467 19.9431L13.1583 19.9365L13.1696 19.9294C16.4018 17.9121 20.25 14.7513 20.25 10.0869C20.25 5.51857 16.4778 1.75 12 1.75ZM12 6.5C10.067 6.5 8.5 8.067 8.5 10C8.5 11.933 10.067 13.5 12 13.5C13.933 13.5 15.5 11.933 15.5 10C15.5 8.067 13.933 6.5 12 6.5Z" fill="#141B34"/>
</svg>
