<svg width="144" height="114" viewBox="0 0 144 114" fill="none" xmlns="http://www.w3.org/2000/svg">
<g clip-path="url(#clip0_318_5409)">
<path fill-rule="evenodd" clip-rule="evenodd" d="M119.894 42.4535C118.873 54.0246 121.661 64.2307 123.907 75.1527C124.346 77.2855 127.102 78.4649 130.065 77.7969C133.028 77.1286 135.074 74.8513 134.637 72.718C132.508 62.3615 129.749 52.6882 130.716 41.6978C130.912 39.4747 128.644 37.8365 125.659 38.0511C122.672 38.2525 120.089 40.2309 119.894 42.4535Z" fill="#FFCF4E"/>
<path fill-rule="evenodd" clip-rule="evenodd" d="M83.5985 29.5304C62.7475 51.9673 44.4903 78.703 33.3433 103.889C32.3719 106.089 33.881 108.186 36.7112 108.563C39.5413 108.941 42.6308 107.472 43.6022 105.272C54.3818 80.9198 72.0386 55.0621 92.2037 33.3763C94.0249 31.4115 93.5757 28.957 91.2023 27.8986C88.8289 26.8403 85.4202 27.5652 83.5985 29.5304Z" fill="#FFCF4E"/>
<path fill-rule="evenodd" clip-rule="evenodd" d="M72.8832 13.3332C49.4542 16.3008 27.1291 26.7061 8.03887 38.3201C5.5503 39.8432 4.87752 42.4004 6.53467 44.0285C8.19671 45.6686 11.5671 45.7635 14.0589 44.2534C31.4436 33.6705 51.6761 24.0008 73.0141 21.2957C76.0082 20.9167 78.4078 18.8217 78.3716 16.6293C78.3374 14.4365 75.8753 12.9547 72.8832 13.3332Z" fill="#FFCF4E"/>
</g>
<defs>
<clipPath id="clip0_318_5409">
<rect width="85" height="127" fill="white" transform="translate(20.4834 113.1) rotate(-103.945)"/>
</clipPath>
</defs>
</svg>
