<svg width="24" height="25" viewBox="0 0 24 25" fill="none" xmlns="http://www.w3.org/2000/svg">
<path d="M5.31726 1.78657C5.88395 1.90369 6.33524 2.28443 6.61564 2.78746L7.50885 4.38991C7.83786 4.98011 8.11473 5.4768 8.29554 5.90857C8.48735 6.36658 8.60126 6.81824 8.54919 7.3176C8.49711 7.81696 8.29246 8.2354 8.01029 8.64399C7.74428 9.02917 7.37088 9.45804 6.92718 9.96767L5.61417 11.4759C5.37889 11.7461 5.26124 11.8812 5.25049 12.0501C5.23974 12.219 5.33616 12.3633 5.529 12.6518C7.17259 15.1109 9.38773 17.3268 11.8488 18.9718C12.1374 19.1647 12.2816 19.2611 12.4505 19.2503C12.6194 19.2396 12.7546 19.1219 13.0248 18.8866L14.5331 17.5736C15.0427 17.1299 15.4716 16.7565 15.8568 16.4905C16.2653 16.2083 16.6838 16.0036 17.1831 15.9516C17.6825 15.8995 18.1342 16.0134 18.5922 16.2052C19.0239 16.386 19.5206 16.6629 20.1107 16.9918L21.7133 17.8851C22.2163 18.1655 22.5971 18.6168 22.7142 19.1835C22.8325 19.7561 22.658 20.3316 22.2724 20.8047C20.8735 22.521 18.6322 23.6139 16.281 23.1396C14.8358 22.848 13.4098 22.3623 11.6851 21.3732C8.2197 19.3858 5.11263 16.277 3.12755 12.8157C2.13843 11.091 1.65272 9.665 1.36118 8.21974C0.88688 5.86852 1.97971 3.62724 3.69608 2.22833C4.16911 1.84279 4.74466 1.66822 5.31726 1.78657Z" fill="#141B34"/>
</svg>
